<svg width="256" height="256" viewBox="0 0 256 256" fill="none" xmlns="http://www.w3.org/2000/svg"><path d="M54.832 201.556L42.668 18.277l158.34 56.401" fill="#FFC24A"/><path d="M54.832 201.556L42.668 18.277 5.334 167.33" fill="#F4BD62"/><path d="m54.83 201.556 94.67-2.333-25.002-71.166" fill="#FFA000"/><path d="m54.83 201.556-49.5-34.226 49.5 34.226z" fill="#F57C00"/><path d="M149.5 199.223l51.508-124.545-51.508 30.003" fill="#FFCA28"/><path d="m124.498 128.057 25.002 71.166 51.508-124.545-25.002-14.584z" fill="#FDE068"/><path d="M54.832 201.556L42.668 18.277l158.34 56.401" fill="url(#a)"/><path d="m149.5 199.223 51.508-124.545L54.83 201.556l94.67-2.333z" fill="url(#b)"/><path d="m124.498 128.057 25.002 71.166L201.008 74.678l-51.51 53.379z" fill="url(#c)"/><path d="m54.832 201.556-11.667-150.278L5.334 167.33l49.498 34.226z" fill="url(#d)"/><defs><linearGradient id="a" x1="128" y1="256" x2="128" y2="0" gradientUnits="userSpaceOnUse"><stop stop-color="#fff" stop-opacity=".2"/><stop offset="1" stop-color="#fff" stop-opacity="0"/></linearGradient><linearGradient id="b" x1="128.167" y1="131.777" x2="167.917" y2="216.554" gradientUnits="userSpaceOnUse"><stop stop-color="#fff" stop-opacity=".2"/><stop offset="1" stop-color="#fff" stop-opacity="0"/></linearGradient><linearGradient id="c" x1="162.752" y1="163.64" x2="162.752" y2="74.678" gradientUnits="userSpaceOnUse"><stop stop-color="#fff" stop-opacity=".1"/><stop offset="1" stop-color="#fff" stop-opacity="0"/></linearGradient><linearGradient id="d" x1="28.999" y1="109.805" x2="60.332" y2="171.138" gradientUnits="userSpaceOnUse"><stop stop-color="#fff" stop-opacity=".1"/><stop offset="1" stop-color="#fff" stop-opacity="0"/></linearGradient></defs></svg>