<svg xmlns="http://www.w3.org/2000/svg" width="24" height="24" viewBox="0 0 24 24" fill="none" stroke="currentColor" stroke-width="2" stroke-linecap="round" stroke-linejoin="round" class="lucide lucide-github"><path d="M12 2c5.523 0 10 4.477 10 10s-4.477 10-10 10S2 17.523 2 12 6.477 2 12 2z"/><path d="M9 19c-1.12.02-2.12-.39-2.94-1.12C5.3 17.11 4.8 16.1 4.5 15c-.1-.5-.1-1.3-.1-1.5 0-.1.1-.1.1-.1s.1 0 .1.1c.1.3.1.5.2.7.2.5.5.9 1 1.2.5.3 1 .5 1.5.5.3 0 .6-.1.9-.2.2-.1.4-.2.6-.4.1-.1.2-.2.3-.3s.2-.3.3-.4c.1-.2.1-.4.1-.6 0-.2 0-.4-.1-.6-.1-.2-.2-.3-.3-.4-.1-.1-.3-.2-.4-.3-.1-.1-.3-.1-.4-.2-.5-.1-1-.3-1.4-.5-.4-.2-.8-.4-1.1-.7-.3-.3-.6-.7-.8-1.1-.2-.4-.3-.9-.3-1.4s.1-1 .3-1.4c.2-.4.5-.8.8-1.1.3-.3.7-.6 1.1-.8.4-.2.9-.3 1.4-.3.5 0 1 .1 1.4.3.4.2.8.4 1.1.7.3.3.6.7.8 1.1.2.4.3.9.3 1.4 0 .2 0 .4-.1.6s-.1.3-.2.5c0 .1 0 .1-.1.1s-.1-.1-.1-.1c-.1-.2-.2-.4-.2-.6 0-.3-.1-.5-.3-.7-.2-.2-.4-.4-.7-.5-.3-.1-.6-.2-.9-.2s-.6.1-.9.2c-.3.1-.5.3-.7.5-.2.2-.3.5-.4.8-.1.3-.1.6-.1.9 0 .5.1.9.3 1.4.2.4.5.8.8 1.1.3.3.7.6 1.1.8.4.2.9.3 1.4.3h.1c.5 0 1-.1 1.4-.3.4-.2.8-.4 1.1-.7.3-.3.6-.7.8-1.1.2-.4.3-.9.3-1.4v-.1c0-1.5-1.2-2.8-2.8-2.8-1.5 0-2.8 1.2-2.8 2.8v.1c0 .1 0 .1.1.1s.1 0 .1-.1c.1-.5.4-1 .9-1.3.5-.3 1.1-.5 1.7-.5.8 0 1.5.3 2.1.8.6.5 1 1.2 1 2.1 0 .5-.1 1-.3 1.4-.2.4-.5.8-.8 1.1-.3.3-.7.6-1.1.8-.4.2-.9.3-1.4.3-.5 0-1-.1-1.4-.3-.4-.2-.8-.4-1.1-.7-.3-.3-.6-.7-.8-1.1s-.3-.9-.3-1.4c0-.2.1-.4.1-.6.1-.2.2-.3.3-.4l.1-.1.1.1c.3.4.7.7 1.2.9.5.2 1 .3 1.5.3.6 0 1.2-.2 1.7-.5.5-.3.9-.8 1.2-1.3.3-.5.4-1.1.4-1.7 0-.8-.3-1.5-.8-2.1s-1.2-1-2.1-1c-.8 0-1.5.3-2.1.8-.5.6-1 1.2-1 2.1 0 .5.1.9.3 1.4.2.4.5.8.8 1.1s.7.6 1.1.8c.4.2.9.3 1.4.3s1-.1 1.4-.3c.4-.2.8-.4 1.1-.7s.6-.7.8-1.1.3-.9.3-1.4c0-.6-.2-1.2-.5-1.7s-.8-1-1.3-1.2c-.5-.3-1.1-.4-1.7-.4s-1.2.1-1.7.4c-.5.3-.9.7-1.2 1.2-.3.5-.5 1.1-.5 1.7s.2 1.2.5 1.7c.3.5.7.9 1.2 1.2.5.3 1.1.4 1.7.4s1.2-.1 1.7-.4c.5-.3.9-.7 1.2-1.2s.5-1.1.5-1.7c0-1.5-1.2-2.8-2.8-2.8s-2.8 1.2-2.8 2.8c0 .8.3 1.5.8 2.1s1.2 1 2.1 1h.1c.6 0 1.2-.2 1.7-.5s.9-.8 1.2-1.3.4-1.1.4-1.7c0-.8-.3-1.5-.8-2.1s-1.2-1-2.1-1-1.5.3-2.1.8c-.5.6-1 1.2-1 2.1z"/></svg>