<svg id="svg" xmlns="http://www.w3.org/2000/svg" xmlns:xlink="http://www.w3.org/1999/xlink" width="400" height="400" viewBox="0, 0, 400,400"><g id="svgg"><path id="path0" d="M273.955 25.172 C 268.543 26.864,270.011 24.799,230.478 86.328 C 222.679 98.467,215.532 109.475,214.595 110.791 C 210.323 116.792,210.679 119.315,216.278 122.697 C 235.685 134.419,298.092 164.844,302.730 164.844 C 304.101 164.844,306.510 163.725,307.504 162.626 C 308.613 161.399,333.730 107.040,347.270 76.563 C 353.673 62.152,352.772 58.427,341.211 51.488 C 313.337 34.759,282.226 22.585,273.955 25.172 M285.586 35.511 C 298.090 39.758,314.350 47.066,329.492 55.244 C 341.870 61.930,343.466 63.200,342.805 65.834 C 342.147 68.455,317.400 122.352,303.669 151.067 C 301.388 155.837,302.620 155.819,292.341 151.236 C 270.178 141.355,240.950 126.730,224.536 117.308 L 221.533 115.584 223.559 112.572 C 224.674 110.914,236.221 93.057,249.219 72.887 C 262.217 52.718,273.484 35.538,274.256 34.710 C 276.201 32.623,277.312 32.702,285.586 35.511 M112.144 39.115 C 111.237 40.089,111.204 40.232,110.140 47.656 C 104.508 86.982,99.121 92.670,61.133 99.398 C 52.456 100.935,51.442 101.364,51.251 103.574 C 51.075 105.602,52.011 106.183,56.896 107.085 C 88.480 112.916,95.410 115.804,101.139 125.527 C 104.878 131.871,108.635 146.883,110.590 163.281 C 111.124 167.759,112.131 169.531,114.141 169.531 C 116.617 169.531,117.237 168.120,118.175 160.352 C 118.513 157.559,119.477 151.846,120.317 147.656 C 126.081 118.928,131.675 114.236,167.578 108.014 C 176.680 106.437,177.539 106.065,177.539 103.711 C 177.539 101.454,176.578 100.996,168.945 99.611 C 128.863 92.341,124.186 87.575,118.398 48.095 C 117.409 41.352,117.098 39.994,116.360 39.209 C 115.231 38.007,113.218 37.962,112.144 39.115 M205.771 125.978 C 205.186 126.308,203.971 127.673,203.071 129.011 C 192.410 144.880,174.940 162.185,158.389 173.270 C 150.903 178.284,151.436 176.998,151.111 190.820 C 150.696 208.466,149.197 221.832,144.496 249.805 C 142.597 261.105,136.213 293.237,133.980 302.734 C 131.436 313.554,131.263 314.490,131.274 317.383 C 131.297 323.515,135.459 328.117,141.607 328.810 C 143.277 328.999,143.463 329.136,144.318 330.823 C 150.338 342.704,162.501 346.230,196.680 346.006 C 216.090 345.879,220.995 346.421,227.717 349.438 C 241.477 355.613,227.814 369.646,200.342 377.553 C 190.729 380.320,181.110 381.813,168.750 382.456 C 159.514 382.937,158.984 383.104,158.984 385.547 C 158.984 391.599,193.975 389.465,213.502 382.221 C 251.024 368.302,254.291 342.722,219.348 336.452 C 216.537 335.948,211.415 335.759,194.141 335.525 C 182.217 335.364,171.582 335.056,170.508 334.841 C 167.827 334.304,163.576 333.188,163.010 332.871 C 162.124 332.376,197.108 303.409,226.367 280.410 C 244.492 266.164,265.279 250.835,277.595 242.635 C 283.986 238.379,284.224 238.060,284.786 232.960 C 286.172 220.394,293.543 194.195,299.856 179.398 C 302.624 172.910,302.124 171.574,295.895 168.814 C 265.832 155.497,243.112 144.385,222.461 132.899 C 218.379 130.628,213.896 128.072,212.500 127.218 C 209.624 125.460,207.413 125.052,205.771 125.978 M213.281 137.515 C 228.744 146.713,263.850 164.215,285.547 173.544 C 289.092 175.069,292.032 176.338,292.081 176.366 C 292.131 176.393,291.554 177.987,290.800 179.907 C 285.249 194.042,278.888 216.891,277.005 229.455 L 276.367 233.716 270.313 237.805 C 245.717 254.416,204.524 286.757,163.383 321.758 C 152.974 330.613,153.391 330.435,151.701 326.743 C 150.427 323.960,150.419 323.984,154.915 316.781 C 156.988 313.460,161.678 305.645,165.338 299.414 C 193.170 252.027,209.129 225.773,209.961 226.002 C 231.909 232.055,244.225 200.687,223.894 190.516 C 205.838 181.483,187.833 204.217,200.831 219.635 L 202.400 221.496 195.269 233.502 C 191.346 240.105,185.953 249.102,183.283 253.495 C 180.613 257.888,174.328 268.469,169.318 277.009 C 161.204 290.837,157.805 296.494,145.994 315.820 C 142.695 321.220,142.236 321.570,140.503 320.011 C 138.825 318.499,138.821 318.543,141.802 305.273 C 152.956 255.629,159.758 209.891,159.765 184.487 L 159.766 182.451 162.207 180.800 C 177.941 170.159,193.844 154.968,205.974 138.994 L 209.141 134.824 210.137 135.531 C 210.685 135.919,212.100 136.813,213.281 137.515 " stroke="none" fill="#000000" fill-rule="evenodd"></path></g></svg>