<svg xmlns="http://www.w3.org/2000/svg" width="88.153" height="61.516" viewBox="80 0 88.153 61.516" xml:space="preserve" aria-label="SciX">
  <!-- S -->
  <path fill="#FEFEFE" d="M90.707 46.777c-1.707 0-3.301-.253-4.78-.76-1.48-.507-2.767-1.22-3.86-2.14s-1.907-1.993-2.44-3.22c-.24-.454-.247-.881-.02-1.28.227-.4.606-.667 1.14-.801.4-.106.8-.06 1.2.141s.693.514.88.939c.4.747.98 1.421 1.74 2.021.76.6 1.667 1.066 2.721 1.399 1.053.334 2.193.501 3.42.501 1.387 0 2.626-.227 3.72-.681 1.093-.453 1.96-1.106 2.6-1.96.641-.853.96-1.893.96-3.12 0-1.546-.586-2.899-1.76-4.06-1.173-1.16-3.04-1.887-5.6-2.18-3.174-.374-5.66-1.347-7.46-2.92-1.8-1.573-2.7-3.52-2.7-5.84 0-1.653.453-3.086 1.36-4.3.907-1.213 2.146-2.146 3.72-2.8 1.573-.653 3.359-.98 5.36-.98 1.52 0 2.88.233 4.079.7 1.2.466 2.247 1.086 3.141 1.86.894.773 1.633 1.64 2.22 2.6.32.48.434.94.34 1.38-.093.44-.34.78-.739 1.02-.428.213-.874.247-1.341.1s-.819-.434-1.06-.86c-.4-.64-.9-1.233-1.5-1.78-.6-.547-1.327-.98-2.18-1.3-.854-.32-1.867-.494-3.041-.521-2.053 0-3.732.427-5.04 1.28-1.307.854-1.96 2.12-1.96 3.8 0 .854.233 1.66.7 2.42.467.76 1.254 1.407 2.36 1.94s2.62.933 4.54 1.2c3.307.426 5.786 1.426 7.44 3 1.652 1.573 2.479 3.64 2.479 6.199 0 1.467-.273 2.761-.82 3.881a7.868 7.868 0 01-2.3 2.819c-.986.76-2.127 1.334-3.42 1.72-1.292.39-2.66.583-4.099.583"/>
  <!-- c -->
  <path fill="#FEFEFE" d="M127.8 28.741a1.686 1.686 0 01.246 1.277 1.7 1.7 0 01-.731 1.077 1.71 1.71 0 01-1.276.246 1.713 1.713 0 01-1.078-.731 8.423 8.423 0 00-1.018-1.258 7.993 7.993 0 00-1.232-1.024l-.063-.042v-.001a8.088 8.088 0 00-1.357-.727 8.031 8.031 0 00-.764-.277 8.081 8.081 0 00-1.595-.328 8.411 8.411 0 00-.806-.046h-.003a8.072 8.072 0 00-1.609.147 8.158 8.158 0 00-2.271.797 8.73 8.73 0 00-.697.412 8.218 8.218 0 00-2.283 2.249 8.346 8.346 0 00-.769 1.419l-.036.088h-.001c-.09.223-.172.449-.241.677a8.062 8.062 0 00-.328 1.594c-.028.27-.045.54-.047.809-.001.268.01.539.034.808a8.503 8.503 0 00.302 1.58 8.167 8.167 0 00.609 1.492 8.267 8.267 0 002.019 2.498c.207.173.422.334.642.482a8.254 8.254 0 001.419.768l.088.037c.223.091.449.172.677.242a8.389 8.389 0 002.401.375v-.001h.001l.002.001a8.396 8.396 0 001.608-.147 8.03 8.03 0 001.539-.457 8.258 8.258 0 003.899-3.292h-.001l.025-.04.01-.017.008-.007c.119-.176.268-.323.435-.439h-.001a1.688 1.688 0 011.243-.28c.214.034.425.111.62.232l.04.025.016.01.006.005a1.69 1.69 0 01.699 1.018 1.694 1.694 0 01-.211 1.282 11.145 11.145 0 01-.72 1.035 11.251 11.251 0 01-1.279 1.39v-.001a10.771 10.771 0 01-.965.799h-.001a11.606 11.606 0 01-3.616 1.805c-.365.107-.736.197-1.108.269s-.749.124-1.128.158a11.808 11.808 0 01-2.286-.015 11.932 11.932 0 01-2.235-.46 11.515 11.515 0 01-3.085-1.483l-.001.001a11.43 11.43 0 01-.914-.688 11.539 11.539 0 01-1.599-1.618 11.952 11.952 0 01-1.257-1.908 11.482 11.482 0 01-.855-2.107 11.464 11.464 0 01-.476-3.378 11.706 11.706 0 01.523-3.379 11.62 11.62 0 01.889-2.109 11.829 11.829 0 011.281-1.891 11.51 11.51 0 013.527-2.854 11.477 11.477 0 014.342-1.283c.38-.035.762-.05 1.142-.047a11.404 11.404 0 012.273.238 11.62 11.62 0 013.213 1.173c.331.179.657.378.977.594h.001a11.539 11.539 0 013.187 3.226"/>
  <!-- i dot -->
  <path fill="#0098DA" d="M138.166 16.346a2.818 2.818 0 00-2.005-.833c-.784 0-1.493.319-2.004.833a2.863 2.863 0 00-.83 2.027c0 .794.317 1.51.83 2.026.511.514 1.22.833 2.004.833.785 0 1.494-.319 2.005-.833.513-.516.83-1.232.83-2.026 0-.795-.317-1.511-.83-2.027"/>
  <!-- i stem -->
  <path fill="#FEFEFE" d="M136.182 46.777c-.507 0-.92-.153-1.24-.46-.319-.307-.479-.727-.479-1.26v-18.44c0-.533.16-.953.479-1.26.32-.307.733-.46 1.24-.46s.913.153 1.22.46c.307.307.46.727.46 1.26v18.44c0 .533-.153.953-.46 1.26s-.714.46-1.22.46"/>
  <!-- X stroke 1 -->
  <path fill="#FEFEFE" d="M166.532 46.777c-.239 0-.473-.053-.699-.159a1.9 1.9 0 01-.62-.48l-9.761-13.52-1.319-1-9.601-13.4a1.595 1.595 0 01-.34-1.16c.04-.427.193-.787.46-1.08.267-.293.641-.44 1.12-.44.561 0 .986.187 1.28.56l9.24 12.8 1.239.92 10.24 14.2c.267.347.394.74.38 1.18-.013.44-.159.813-.439 1.12s-.673.459-1.18.459"/>
  <!-- X stroke 2 -->
  <path fill="#FEFEFE" d="M145.133 46.777c-.507 0-.894-.153-1.16-.46s-.413-.68-.44-1.12a1.622 1.622 0 01.4-1.18l10.32-14 1.56-1.32 9.32-12.6c.319-.373.746-.56 1.28-.56.453 0 .819.153 1.1.46s.434.667.46 1.08c.026.414-.08.793-.32 1.14l-9.8 13.24-1.479 1.239-10.04 13.561a1.57 1.57 0 01-1.201.52"/>
</svg>
