<svg id="svg" xmlns="http://www.w3.org/2000/svg" xmlns:xlink="http://www.w3.org/1999/xlink" width="400" height="370.95238095238096" viewBox="0, 0, 400,370.95238095238096"><g id="svgg"><path id="path0" d="M20.799 0.751 C 10.652 3.208,2.076 12.343,0.495 22.381 C -0.182 26.678,-0.182 344.274,0.495 348.571 C 2.073 358.589,10.434 367.540,20.712 370.217 C 25.067 371.352,346.225 371.336,350.646 370.201 C 360.694 367.621,368.644 359.490,370.727 349.660 C 371.758 344.795,371.758 26.157,370.727 21.292 C 368.630 11.395,360.403 3.084,350.359 0.716 C 345.971 -0.318,25.075 -0.285,20.799 0.751 M89.272 52.148 C 108.949 56.316,119.869 77.950,111.440 96.062 C 100.185 120.243,66.309 120.746,54.542 96.907 C 43.064 73.653,63.918 46.778,89.272 52.148 M257.157 135.235 C 292.296 137.769,309.428 154.841,314.504 192.381 C 315.879 202.550,316.182 215.785,316.186 265.833 L 316.190 315.714 288.829 315.714 L 261.468 315.714 261.297 263.452 C 261.100 202.930,261.242 204.791,256.079 195.100 C 246.679 177.456,214.364 178.908,205.129 197.389 C 199.779 208.096,199.867 206.998,199.659 265.357 L 199.479 315.714 172.359 315.714 L 145.238 315.714 145.238 227.619 L 145.238 139.524 171.190 139.524 L 197.143 139.524 197.143 151.429 C 197.143 165.355,197.141 165.351,201.109 159.387 C 209.919 146.147,226.537 136.827,244.112 135.269 C 250.222 134.727,250.122 134.728,257.157 135.235 M110.000 227.619 L 110.000 315.714 82.857 315.714 L 55.714 315.714 55.714 227.619 L 55.714 139.524 82.857 139.524 L 110.000 139.524 110.000 227.619 M385.476 299.363 C 376.474 304.109,378.922 317.526,388.956 318.436 C 397.562 319.217,403.176 309.760,398.286 302.721 C 395.684 298.976,389.357 297.317,385.476 299.363 M394.442 301.748 C 399.327 304.888,399.126 312.525,394.079 315.483 C 388.696 318.638,381.936 314.838,381.913 308.643 C 381.887 301.877,388.759 298.096,394.442 301.748 M386.190 308.333 C 386.190 313.492,386.246 313.810,387.143 313.810 C 387.954 313.810,388.095 313.492,388.095 311.667 C 388.095 308.780,389.291 308.780,391.115 311.668 C 392.135 313.283,392.764 313.810,393.670 313.810 C 394.979 313.810,394.984 313.824,392.562 310.274 C 392.015 309.472,392.069 309.292,392.992 308.831 C 393.845 308.406,394.048 307.898,394.048 306.190 C 394.048 303.577,392.967 302.875,388.929 302.864 L 386.190 302.857 386.190 308.333 M392.143 306.190 C 392.143 307.251,391.921 307.397,390.119 307.527 C 388.140 307.671,388.095 307.641,388.095 306.190 C 388.095 304.740,388.140 304.710,390.119 304.854 C 391.921 304.984,392.143 305.130,392.143 306.190 " stroke="none" fill="#000000" fill-rule="evenodd"></path></g></svg>